<svg width="19" height="19" viewBox="0 0 19 19" fill="none" xmlns="http://www.w3.org/2000/svg">
<rect x="0.6" y="0.6" width="17.8" height="17.8" rx="8.9" fill="white" stroke="url(#paint0_linear_11015_10532)" stroke-width="1.2"/>
<path d="M12.1875 12.4375H6.54492C6.24609 12.4375 6 12.7012 6 13C6 13.2812 6.24609 13.5625 6.54492 13.5625H12.1875C12.4863 13.5625 12.75 13.3164 12.75 13C12.75 12.7012 12.4863 12.4375 12.1875 12.4375ZM11.7656 8.51758H10.5V6.26758C10.5 5.95117 10.2363 5.70508 9.9375 5.70508H8.8125C8.49609 5.70508 8.25 5.95117 8.25 6.26758V8.51758H6.98438C6.80859 8.51758 6.65039 8.60547 6.58008 8.76367C6.52734 8.92188 6.54492 9.09766 6.66797 9.2207L9.05859 11.752C9.2168 11.9277 9.51562 11.9277 9.67383 11.752L12.0645 9.2207C12.1875 9.09766 12.2051 8.92188 12.1523 8.76367C12.082 8.60547 11.9238 8.51758 11.7656 8.51758Z" fill="url(#paint1_linear_11015_10532)"/>
<defs>
<linearGradient id="paint0_linear_11015_10532" x1="1.15854" y1="3.0122" x2="15.2927" y2="17.378" gradientUnits="userSpaceOnUse">
<stop stop-color="#FB63B9"/>
<stop offset="1" stop-color="#F49C61"/>
</linearGradient>
<linearGradient id="paint1_linear_11015_10532" x1="9.5" y1="5" x2="9.5" y2="14" gradientUnits="userSpaceOnUse">
<stop stop-color="#FB68B3"/>
<stop offset="1" stop-color="#F59A65"/>
</linearGradient>
</defs>
</svg>
