<svg width="19" height="19" viewBox="0 0 19 19" fill="none" xmlns="http://www.w3.org/2000/svg">
<rect x="0.6" y="0.6" width="17.8" height="17.8" rx="8.9" fill="white" stroke="url(#paint0_linear_4235_1845)" stroke-width="1.2"/>
<path d="M6.125 6.8125H5C5 8.97461 6.75781 10.75 8.9375 10.75V13C8.9375 13.3164 9.18359 13.5625 9.48242 13.5625C9.76367 13.5625 10.0625 13.3164 10.0625 13V10.75C10.0625 8.58789 8.28711 6.8125 6.125 6.8125ZM12.875 5.6875C11.3809 5.6875 10.0977 6.51367 9.42969 7.72656C9.9043 8.25391 10.2734 8.9043 10.4668 9.60742C12.4531 9.41406 14 7.72656 14 5.6875H12.875Z" fill="url(#paint1_linear_4235_1845)"/>
<defs>
<linearGradient id="paint0_linear_4235_1845" x1="1.15854" y1="3.0122" x2="15.2927" y2="17.378" gradientUnits="userSpaceOnUse">
<stop stop-color="#00E8FF"/>
<stop offset="1" stop-color="#47F648"/>
</linearGradient>
<linearGradient id="paint1_linear_4235_1845" x1="5.94737" y1="5.94737" x2="11.3947" y2="12.1053" gradientUnits="userSpaceOnUse">
<stop stop-color="#05E9F5"/>
<stop offset="1" stop-color="#46F64C"/>
</linearGradient>
</defs>
</svg>
