<svg width="24" height="24" viewBox="0 0 24 24" fill="none" xmlns="http://www.w3.org/2000/svg">
<path d="M23.625 12C23.625 5.57812 18.4219 0.375 12 0.375C5.57812 0.375 0.375 5.57812 0.375 12C0.375 18.4219 5.57812 23.625 12 23.625C18.4219 23.625 23.625 18.4219 23.625 12ZM16.875 10.6875C17.2969 10.2188 18.0469 10.2188 18.4688 10.6406L18.9844 11.1562C19.4531 11.5781 19.4531 12.3281 18.9844 12.75L12.75 18.9844C12.3281 19.4062 11.625 19.4062 11.2031 18.9844L4.96875 12.75C4.54688 12.3281 4.54688 11.625 4.96875 11.1562L5.48438 10.6406C5.90625 10.2188 6.65625 10.2188 7.07812 10.6875L10.5 14.2031V5.625C10.5 5.01562 10.9688 4.5 11.625 4.5H12.375C12.9844 4.5 13.5 5.01562 13.5 5.625V14.2031L16.875 10.6875Z" fill="white"/>
</svg>
