<svg width="14" height="14" viewBox="0 0 14 14" fill="none" xmlns="http://www.w3.org/2000/svg">
<path d="M6.99998 0.333374C3.31998 0.333374 0.333313 3.32004 0.333313 7.00004C0.333313 10.68 3.31998 13.6667 6.99998 13.6667C10.68 13.6667 13.6666 10.68 13.6666 7.00004C13.6666 3.32004 10.68 0.333374 6.99998 0.333374ZM6.35932 10.0406C6.19314 10.2067 5.92446 10.2091 5.75537 10.0459L3.08857 7.47163C2.82013 7.2125 2.81634 6.7836 3.08017 6.51977V6.51977C3.336 6.26394 3.74911 6.25861 4.01146 6.50776L6.05996 8.45324L9.98663 4.52664C10.2478 4.2655 10.6714 4.26625 10.9316 4.52831V4.52831C11.1905 4.78907 11.1898 5.21014 10.93 5.46998L6.35932 10.0406Z" fill="#3574F4"/>
</svg>
