<svg width="50" height="50" viewBox="0 0 50 50" fill="none" xmlns="http://www.w3.org/2000/svg">
<rect width="50" height="50" rx="14" fill="#292929"/>
<g clip-path="url(#clip0_9020_5546)">
<path d="M37 27.6666C37 26.9333 36.4 26.3333 35.6667 26.3333H33V29H35.6667C36.4 29 37 28.4 37 27.6666Z" fill="white" fill-opacity="0.8"/>
<path d="M35.6667 31.6666H33V34.3333H35.6667C36.4 34.3333 37 33.7333 37 33C37 32.2666 36.4 31.6666 35.6667 31.6666Z" fill="white" fill-opacity="0.8"/>
<path d="M25 27.6667H22.3334V33H25C25 34.4667 26.2 35.6667 27.6667 35.6667H31.6667V25H27.6667C26.2 25 25 26.2 25 27.6667Z" fill="white" fill-opacity="0.8"/>
<path d="M15.6667 26.3333C15.6667 24.8666 16.8667 23.6666 18.3333 23.6666H20.3333C22.9067 23.6666 25 21.5733 25 19C25 16.4266 22.9067 14.3333 20.3333 14.3333H15.6667C14.9333 14.3333 14.3333 14.9333 14.3333 15.6666C14.3333 16.4 14.9333 17 15.6667 17H20.3333C21.44 17 22.3333 17.8933 22.3333 19C22.3333 20.1066 21.44 21 20.3333 21H18.3333C15.3867 21 13 23.3866 13 26.3333C13 29.28 15.3867 31.6666 18.3333 31.6666H21V29H18.3333C16.8667 29 15.6667 27.8 15.6667 26.3333Z" fill="white" fill-opacity="0.8"/>
</g>
<defs>
<clipPath id="clip0_9020_5546">
<rect width="32" height="32" fill="white" transform="translate(9 9)"/>
</clipPath>
</defs>
</svg>
