<svg width="16" height="16" viewBox="0 0 16 16" fill="none" xmlns="http://www.w3.org/2000/svg">
  <g clip-path="url(#clip0_11142_10900)">
    <path d="M7 16C5.89688 16 5 15.1031 5 14L5 7C5 5.89687 5.89687 5 7 5L14 5C15.1031 5 16 5.89687 16 7L16 14C16 15.1031 15.1031 16 14 16L7 16ZM2 11C0.896875 11 -5.15521e-07 10.1031 -6.11959e-07 9L-1.22392e-06 2C-1.32036e-06 0.896875 0.896874 -7.84073e-08 2 -1.74846e-07L9 -7.86805e-07C10.1031 -8.83243e-07 11 0.896874 11 2L11 4L9 4L9 2L2 2L2 9L4 9L4 11L2 11Z" fill="black"/>
  </g>
  <defs>
    <clipPath id="clip0_11142_10900">
      <rect width="16" height="16" fill="white" transform="matrix(1 -8.74228e-08 -8.74228e-08 -1 0 16)"/>
    </clipPath>
  </defs>
</svg>