<svg width="40" height="40" viewBox="0 0 40 40" fill="none" xmlns="http://www.w3.org/2000/svg">
<g clip-path="url(#clip0_9308_16373)">
<path fill-rule="evenodd" clip-rule="evenodd" d="M8.86342 2.27603C8.86342 1.01901 9.87705 0 11.1274 0C12.3778 0 13.3915 1.01901 13.3915 2.27603V8.7167H26.6866V2.32446C26.6866 1.0407 27.7218 0 28.9988 0C30.2758 0 31.3109 1.04069 31.3109 2.32446V8.7167H37.7659C39.0428 8.7167 40.0781 9.75741 40.0781 11.0412C40.0781 12.3249 39.0428 13.3656 37.7659 13.3656H31.3109V26.6344H37.4768C38.7539 26.6344 39.789 27.675 39.789 28.9589C39.789 30.2426 38.7539 31.2833 37.4768 31.2833H31.3109V37.6755C31.3109 38.9594 30.2758 40 28.9988 40C27.7218 40 26.6866 38.9594 26.6866 37.6755V31.2833H13.3915V37.724C13.3915 38.981 12.3778 40 11.1274 40C9.87705 40 8.86342 38.981 8.86342 37.724V31.2833H2.3122C1.03521 31.2833 0 30.2426 0 28.9589C0 27.675 1.03521 26.6344 2.3122 26.6344H8.86342V13.3656H2.60122C1.32424 13.3656 0.289025 12.3249 0.289025 11.0412C0.289025 9.75741 1.32423 8.7167 2.60122 8.7167H8.86342V2.27603Z" fill="url(#paint0_radial_9308_16373)"/>
<path fill-rule="evenodd" clip-rule="evenodd" d="M8.86342 2.27603C8.86342 1.01901 9.87705 0 11.1274 0C12.3778 0 13.3915 1.01901 13.3915 2.27603V8.7167H26.6866V2.32446C26.6866 1.0407 27.7218 0 28.9988 0C30.2758 0 31.3109 1.04069 31.3109 2.32446V8.7167H37.7659C39.0428 8.7167 40.0781 9.75741 40.0781 11.0412C40.0781 12.3249 39.0428 13.3656 37.7659 13.3656H31.3109V26.6344H37.4768C38.7539 26.6344 39.789 27.675 39.789 28.9589C39.789 30.2426 38.7539 31.2833 37.4768 31.2833H31.3109V37.6755C31.3109 38.9594 30.2758 40 28.9988 40C27.7218 40 26.6866 38.9594 26.6866 37.6755V31.2833H13.3915V37.724C13.3915 38.981 12.3778 40 11.1274 40C9.87705 40 8.86342 38.981 8.86342 37.724V31.2833H2.3122C1.03521 31.2833 0 30.2426 0 28.9589C0 27.675 1.03521 26.6344 2.3122 26.6344H8.86342V13.3656H2.60122C1.32424 13.3656 0.289025 12.3249 0.289025 11.0412C0.289025 9.75741 1.32423 8.7167 2.60122 8.7167H8.86342V2.27603Z" fill="url(#paint1_radial_9308_16373)"/>
<path d="M20.0391 23.1772C23.2847 23.1772 25.9159 20.4424 25.9159 17.0689C25.9159 13.6955 23.2847 10.9607 20.0391 10.9607C16.7934 10.9607 14.1622 13.6955 14.1622 17.0689C14.1622 20.4424 16.7934 23.1772 20.0391 23.1772Z" fill="#BEC1FF"/>
<path d="M20.2179 22.5764C23.3423 22.5764 25.8752 19.864 25.8752 16.5182C25.8752 13.1723 23.3423 10.46 20.2179 10.46C17.0935 10.46 14.5606 13.1723 14.5606 16.5182C14.5606 19.864 17.0935 22.5764 20.2179 22.5764Z" fill="#35375E"/>
<path d="M20.2179 21.0928C22.833 21.0928 24.9529 18.9616 24.9529 16.3328C24.9529 13.7039 22.833 11.5728 20.2179 11.5728C17.6029 11.5728 15.483 13.7039 15.483 16.3328C15.483 18.9616 17.6029 21.0928 20.2179 21.0928Z" fill="#E5D7D7"/>
<path d="M20.2179 18.5582C21.4066 18.5582 22.3701 17.5895 22.3701 16.3946C22.3701 15.1997 21.4066 14.231 20.2179 14.231C19.0293 14.231 18.0657 15.1997 18.0657 16.3946C18.0657 17.5895 19.0293 18.5582 20.2179 18.5582Z" fill="#033D3E"/>
<path d="M18.9434 16.0677C19.5485 16.0677 20.0391 15.5746 20.0391 14.9662C20.0391 14.3579 19.5485 13.8647 18.9434 13.8647C18.3383 13.8647 17.8477 14.3579 17.8477 14.9662C17.8477 15.5746 18.3383 16.0677 18.9434 16.0677Z" fill="white"/>
<path d="M21.6825 18.8712C22.1501 18.8712 22.5291 18.4902 22.5291 18.0201C22.5291 17.55 22.1501 17.1689 21.6825 17.1689C21.2149 17.1689 20.8358 17.55 20.8358 18.0201C20.8358 18.4902 21.2149 18.8712 21.6825 18.8712Z" fill="white"/>
<path d="M11.561 17.0461C12.0931 17.0461 12.5244 16.7426 12.5244 16.3682C12.5244 15.9937 12.0931 15.6902 11.561 15.6902C11.0289 15.6902 10.5976 15.9937 10.5976 16.3682C10.5976 16.7426 11.0289 17.0461 11.561 17.0461Z" fill="white"/>
<path d="M12.1872 19.8548C12.533 19.8548 12.8134 19.6597 12.8134 19.419C12.8134 19.1783 12.533 18.9832 12.1872 18.9832C11.8413 18.9832 11.561 19.1783 11.561 19.419C11.561 19.6597 11.8413 19.8548 12.1872 19.8548Z" fill="white"/>
<path d="M9.55401 37.3616C9.79629 37.5054 10.0914 37.4539 10.2131 37.2467C10.3349 37.0394 10.2371 36.7548 9.99484 36.611C9.75256 36.4672 9.45747 36.5186 9.33574 36.7259C9.214 36.9332 9.31173 37.2178 9.55401 37.3616Z" fill="white"/>
<path d="M30.369 38.3593C30.5512 38.24 30.617 38.0168 30.516 37.8609C30.4149 37.7051 30.1853 37.6755 30.0031 37.7948C29.8209 37.9142 29.7551 38.1374 29.8561 38.2932C29.9572 38.4491 30.1868 38.4787 30.369 38.3593Z" fill="white"/>
<path d="M27.8909 12.5909C28.2367 12.5909 28.5171 12.3958 28.5171 12.1551C28.5171 11.9144 28.2367 11.7192 27.8909 11.7192C27.545 11.7192 27.2646 11.9144 27.2646 12.1551C27.2646 12.3958 27.545 12.5909 27.8909 12.5909Z" fill="white"/>
<path d="M38.642 28.1268C38.4502 27.8374 38.1332 27.7111 37.934 27.8446C37.7347 27.9781 37.7287 28.3209 37.9205 28.6102C38.1123 28.8995 38.4293 29.0258 38.6286 28.8923C38.8278 28.7588 38.8338 28.4161 38.642 28.1268Z" fill="white"/>
<path d="M1.91899 29.5878C1.6691 29.3474 1.33233 29.2936 1.1668 29.4675C1.00128 29.6414 1.06967 29.9773 1.31956 30.2176C1.56946 30.458 1.90622 30.5118 2.07175 30.3379C2.23728 30.164 2.16888 29.8282 1.91899 29.5878Z" fill="white"/>
<path d="M2.08602 10.2491C2.31106 9.98504 2.3461 9.64404 2.16429 9.48742C1.98247 9.3308 1.65265 9.41786 1.42761 9.68187C1.20257 9.94589 1.16753 10.2869 1.34935 10.4435C1.53116 10.6001 1.86099 10.5131 2.08602 10.2491Z" fill="white"/>
<path d="M10.096 39.0538C10.5107 39.3446 11.0093 39.3465 11.2096 39.0578C11.4099 38.7692 11.2361 38.2995 10.8214 38.0086C10.4067 37.7177 9.90811 37.7159 9.70781 38.0045C9.5075 38.2932 9.6813 38.7629 10.096 39.0538Z" fill="white"/>
<path d="M23.8241 26.2983C23.8241 28.114 22.307 29.586 20.2597 29.586C18.2124 29.586 16.5527 28.114 16.5527 26.2983C16.5527 24.7111 17.6424 25.4422 19.1549 25.6513C19.6001 25.7128 20.0471 25.6176 20.4721 25.4712C22.5283 24.7633 23.8241 24.648 23.8241 26.2983Z" fill="#BEC1FF"/>
<path d="M23.8241 25.9348C23.8241 27.6636 22.307 29.0651 20.2597 29.0651C18.2124 29.0651 16.5527 27.6636 16.5527 25.9348C16.5527 24.4135 17.6568 25.1289 19.1849 25.3225C19.6109 25.3766 20.0385 25.2899 20.4467 25.1556C22.5177 24.4739 23.8241 24.3569 23.8241 25.9348Z" fill="#35375E"/>
<path fill-rule="evenodd" clip-rule="evenodd" d="M21.8105 24.7917C21.7719 25.8587 20.855 26.7123 19.7298 26.7123C18.6954 26.7123 17.8371 25.9909 17.6752 25.0456C17.8064 25.07 17.9455 25.0994 18.0917 25.1302C18.4308 25.2017 18.8085 25.2815 19.2133 25.3263C19.6206 25.3714 20.0294 25.2933 20.4203 25.1699C20.929 25.0094 21.3947 24.8786 21.8105 24.7917Z" fill="#FEFBEA"/>
</g>
<defs>
<radialGradient id="paint0_radial_9308_16373" cx="0" cy="0" r="1" gradientUnits="userSpaceOnUse" gradientTransform="translate(20.0391 23.0024) rotate(90) scale(19.7094 19.748)">
<stop offset="0.130208" stop-color="#4E54C8"/>
<stop offset="0.578125" stop-color="#8F94FB"/>
</radialGradient>
<radialGradient id="paint1_radial_9308_16373" cx="0" cy="0" r="1" gradientUnits="userSpaceOnUse" gradientTransform="translate(20.0391 23.0024) rotate(90) scale(19.7094 19.748)">
<stop offset="0.130208" stop-color="#4E54C8"/>
<stop offset="0.578125" stop-color="#8F94FB"/>
</radialGradient>
<clipPath id="clip0_9308_16373">
<rect width="40" height="40" fill="white"/>
</clipPath>
</defs>
</svg>
