<svg width="20" height="20" viewBox="0 0 20 20" fill="none" xmlns="http://www.w3.org/2000/svg">
<g clip-path="url(#clip0_11132_14727)">
<g clip-path="url(#clip1_11132_14727)">
<path d="M11.575 7.25L9.99996 8.825L8.42496 7.25C8.09996 6.925 7.57496 6.925 7.24996 7.25C6.92496 7.575 6.92496 8.1 7.24996 8.425L8.82496 10L7.24996 11.575C6.92496 11.9 6.92496 12.425 7.24996 12.75C7.57496 13.075 8.09996 13.075 8.42496 12.75L9.99996 11.175L11.575 12.75C11.9 13.075 12.425 13.075 12.75 12.75C13.075 12.425 13.075 11.9 12.75 11.575L11.175 10L12.75 8.425C13.075 8.1 13.075 7.575 12.75 7.25C12.425 6.93333 11.8916 6.93333 11.575 7.25ZM9.99996 1.66666C5.39163 1.66666 1.66663 5.39166 1.66663 10C1.66663 14.6083 5.39163 18.3333 9.99996 18.3333C14.6083 18.3333 18.3333 14.6083 18.3333 10C18.3333 5.39166 14.6083 1.66666 9.99996 1.66666Z" fill="white" fill-opacity="0.2"/>
<path d="M11.575 7.25L10 8.825L8.42502 7.25C8.10002 6.925 7.57502 6.925 7.25002 7.25C6.92502 7.575 6.92502 8.1 7.25002 8.425L8.82502 10L7.25002 11.575C6.92502 11.9 6.92502 12.425 7.25002 12.75C7.57502 13.075 8.10002 13.075 8.42502 12.75L10 11.175L11.575 12.75C11.9 13.075 12.425 13.075 12.75 12.75C13.075 12.425 13.075 11.9 12.75 11.575L11.175 10L12.75 8.425C13.075 8.1 13.075 7.575 12.75 7.25C12.425 6.93333 11.8917 6.93333 11.575 7.25ZM10 1.66667C5.39169 1.66667 1.66669 5.39167 1.66669 10C1.66669 14.6083 5.39169 18.3333 10 18.3333C14.6084 18.3333 18.3334 14.6083 18.3334 10C18.3334 5.39167 14.6084 1.66667 10 1.66667ZM10 16.6667C6.32502 16.6667 3.33335 13.675 3.33335 10C3.33335 6.325 6.32502 3.33333 10 3.33333C13.675 3.33333 16.6667 6.325 16.6667 10C16.6667 13.675 13.675 16.6667 10 16.6667Z" fill="white"/>
</g>
</g>
<defs>
<clipPath id="clip0_11132_14727">
<rect width="20" height="20" fill="white"/>
</clipPath>
<clipPath id="clip1_11132_14727">
<rect width="20" height="20" fill="white"/>
</clipPath>
</defs>
</svg>
