<svg width="24" height="24" viewBox="0 0 24 24" fill="none" xmlns="http://www.w3.org/2000/svg">
<path d="M23.3906 15.5625C23.3906 15.3281 23.25 15.0469 23.0156 14.9062L20.8125 13.6875C20.9062 13.125 21 12.5625 21 12C21 11.4844 20.9062 10.9219 20.8125 10.3594L23.0156 9.14062C23.25 9 23.3906 8.71875 23.3906 8.4375C23.3906 7.78125 21.4219 3.79688 20.3906 3.79688C20.25 3.79688 20.1094 3.84375 20.0156 3.9375L17.8125 5.20312C16.9688 4.45312 16.0312 3.9375 15 3.5625V1.03125C15 0.65625 14.7188 0.328125 14.3906 0.28125C13.5938 0.09375 12.7969 0 12 0C11.1562 0 10.3594 0.09375 9.5625 0.28125C9.23438 0.375 9 0.65625 9 1.03125V3.5625C7.92188 3.9375 6.98438 4.45312 6.14062 5.20312L3.9375 3.9375C3.84375 3.84375 3.70312 3.79688 3.5625 3.79688C2.625 3.79688 0.5625 7.64062 0.5625 8.4375C0.5625 8.71875 0.703125 9 0.9375 9.14062L3.14062 10.3594C3.04688 10.9219 3 11.4375 3 12C3 12.5625 3.04688 13.125 3.14062 13.6875L0.9375 14.9062C0.703125 15.0469 0.5625 15.3281 0.5625 15.5625C0.5625 16.2656 2.53125 20.25 3.5625 20.25C3.70312 20.25 3.84375 20.2031 3.9375 20.1094L6.14062 18.8438C6.98438 19.5469 7.92188 20.1094 9 20.4844V23.0156C9 23.3906 9.23438 23.6719 9.5625 23.7656C10.3594 23.9062 11.1562 24 11.9531 24C12.7031 24 13.5469 23.9531 14.3438 23.7656C14.7188 23.6719 15 23.3906 15 23.0156V20.4844C16.0312 20.1094 16.9688 19.5469 17.8125 18.8438L20.0156 20.1094C20.1094 20.2031 20.25 20.25 20.3906 20.25C21.3281 20.2031 23.3906 16.4062 23.3906 15.5625ZM12 15.75C9.89062 15.75 8.25 14.1094 8.25 12C8.25 9.9375 9.89062 8.25 12 8.25C14.0625 8.25 15.75 9.9375 15.75 12C15.75 14.1094 14.0625 15.75 12 15.75Z" fill="black"/>
<path d="M23.0156 14.9062L23.0671 14.8204L23.064 14.8187L23.0156 14.9062ZM20.8125 13.6875L20.7139 13.6711L20.7022 13.7408L20.7641 13.775L20.8125 13.6875ZM20.8125 10.3594L20.7641 10.2719L20.7022 10.3061L20.7139 10.3758L20.8125 10.3594ZM23.0156 9.14062L23.0641 9.22818L23.0671 9.22637L23.0156 9.14062ZM20.0156 3.9375L20.0654 4.02421L20.0769 4.0176L20.0863 4.00821L20.0156 3.9375ZM17.8125 5.20312L17.7461 5.27787L17.7999 5.3257L17.8623 5.28984L17.8125 5.20312ZM15 3.5625H14.9V3.63254L14.9658 3.65648L15 3.5625ZM14.3906 0.28125L14.3676 0.37898L14.3765 0.380245L14.3906 0.28125ZM9.5625 0.28125L9.53957 0.1838L9.53503 0.185098L9.5625 0.28125ZM9 3.5625L9.03285 3.65695L9.1 3.63359V3.5625H9ZM6.14062 5.20312L6.09081 5.28984L6.15325 5.3257L6.20706 5.27787L6.14062 5.20312ZM3.9375 3.9375L3.86679 4.00821L3.87618 4.0176L3.88769 4.02421L3.9375 3.9375ZM0.9375 9.14062L0.886019 9.22643L0.889094 9.22813L0.9375 9.14062ZM3.14062 10.3594L3.23926 10.3758L3.25089 10.3061L3.18903 10.2719L3.14062 10.3594ZM3.14062 13.6875L3.18903 13.775L3.25089 13.7408L3.23926 13.6711L3.14062 13.6875ZM0.9375 14.9062L0.889064 14.8187L0.88605 14.8205L0.9375 14.9062ZM3.9375 20.1094L3.88769 20.0227L3.87618 20.0293L3.86679 20.0387L3.9375 20.1094ZM6.14062 18.8438L6.20464 18.7669L6.15117 18.7224L6.09081 18.757L6.14062 18.8438ZM9 20.4844H9.1V20.4133L9.03285 20.3899L9 20.4844ZM9.5625 23.7656L9.53488 23.8623L9.54512 23.8641L9.5625 23.7656ZM14.3438 23.7656L14.3667 23.863L14.368 23.8626L14.3438 23.7656ZM15 20.4844L14.9658 20.3904L14.9 20.4143V20.4844H15ZM17.8125 18.8438L17.8623 18.757L17.802 18.7224L17.7485 18.7669L17.8125 18.8438ZM20.0156 20.1094L20.0863 20.0387L20.0769 20.0293L20.0654 20.0227L20.0156 20.1094ZM20.3906 20.25V20.3501L20.3956 20.3499L20.3906 20.25ZM23.4906 15.5625C23.4906 15.2949 23.3332 14.9802 23.0671 14.8205L22.9642 14.992C23.1668 15.1136 23.2906 15.3613 23.2906 15.5625H23.4906ZM23.064 14.8187L20.8609 13.6L20.7641 13.775L22.9672 14.9938L23.064 14.8187ZM20.9111 13.7039C21.0046 13.1429 21.1 12.5722 21.1 12H20.9C20.9 12.5528 20.8079 13.1071 20.7139 13.6711L20.9111 13.7039ZM21.1 12C21.1 11.4745 21.0046 10.9034 20.9111 10.3429L20.7139 10.3758C20.8079 10.9403 20.9 11.4942 20.9 12H21.1ZM20.8609 10.4469L23.064 9.22813L22.9672 9.05312L20.7641 10.2719L20.8609 10.4469ZM23.0671 9.22637C23.3357 9.06518 23.4906 8.74873 23.4906 8.4375H23.2906C23.2906 8.68877 23.1643 8.93482 22.9642 9.05488L23.0671 9.22637ZM23.4906 8.4375C23.4906 8.33807 23.455 8.19062 23.3991 8.01876C23.342 7.84316 23.2598 7.63066 23.1587 7.39598C22.9565 6.92648 22.6764 6.36345 22.364 5.82118C22.0519 5.27948 21.7056 4.75498 21.3703 4.36454C21.2028 4.16945 21.0355 4.00487 20.8742 3.88831C20.7146 3.773 20.5502 3.69687 20.3906 3.69687V3.89688C20.4888 3.89688 20.6115 3.94526 20.757 4.05041C20.9008 4.15431 21.0565 4.30614 21.2186 4.49484C21.5424 4.87197 21.8817 5.38458 22.1907 5.92101C22.4994 6.45686 22.776 7.01298 22.9751 7.47511C23.0746 7.70625 23.1543 7.9127 23.2089 8.08061C23.2647 8.25225 23.2906 8.37286 23.2906 8.4375H23.4906ZM20.3906 3.69687C20.2302 3.69687 20.0617 3.75004 19.9449 3.86679L20.0863 4.00821C20.1571 3.93746 20.2698 3.89688 20.3906 3.89688V3.69687ZM19.9658 3.85079L17.7627 5.11641L17.8623 5.28984L20.0654 4.02421L19.9658 3.85079ZM17.8789 5.12838C17.0242 4.36862 16.0752 3.84707 15.0342 3.46852L14.9658 3.65648C15.9873 4.02793 16.9133 4.53763 17.7461 5.27787L17.8789 5.12838ZM15.1 3.5625V1.03125H14.9V3.5625H15.1ZM15.1 1.03125C15.1 0.61078 14.7863 0.236759 14.4048 0.182255L14.3765 0.380245C14.6512 0.419491 14.9 0.70172 14.9 1.03125H15.1ZM14.4135 0.183908C13.6094 -0.00530958 12.8048 -0.0999999 12 -0.0999999V0.1C12.789 0.1 13.5781 0.19281 14.3677 0.378592L14.4135 0.183908ZM12 -0.0999999C11.1486 -0.0999999 10.344 -0.00536156 9.5396 0.183908L9.5854 0.378592C10.3748 0.192862 11.1639 0.1 12 0.1V-0.0999999ZM9.53503 0.185098C9.16586 0.290575 8.9 0.609673 8.9 1.03125H9.1C9.1 0.702827 9.30289 0.459425 9.58997 0.377402L9.53503 0.185098ZM8.9 1.03125V3.5625H9.1V1.03125H8.9ZM8.96715 3.46805C7.87853 3.8467 6.92913 4.36844 6.07419 5.12838L6.20706 5.27787C7.03962 4.53781 7.96522 4.0283 9.03285 3.65695L8.96715 3.46805ZM6.19044 5.11641L3.98731 3.85079L3.88769 4.02421L6.09081 5.28984L6.19044 5.11641ZM4.00821 3.86679C3.89146 3.75004 3.72297 3.69687 3.5625 3.69687V3.89688C3.68328 3.89688 3.79604 3.93746 3.86679 4.00821L4.00821 3.86679ZM3.5625 3.69687C3.41355 3.69687 3.25754 3.77182 3.10547 3.88282C2.95105 3.99554 2.78806 4.15482 2.62288 4.34418C2.29224 4.72322 1.94307 5.23416 1.62506 5.76712C1.30677 6.30056 1.01772 6.85938 0.807893 7.33592C0.703008 7.57413 0.617361 7.79304 0.557741 7.97874C0.498993 8.16173 0.4625 8.32142 0.4625 8.4375H0.6625C0.6625 8.35436 0.69046 8.21962 0.748167 8.03988C0.805003 7.86285 0.887812 7.65072 0.990935 7.41652C1.19713 6.94824 1.48229 6.39671 1.79681 5.8696C2.11162 5.34201 2.45385 4.84221 2.7736 4.47565C2.93362 4.2922 3.08557 4.14496 3.22339 4.04436C3.36356 3.94205 3.47708 3.89688 3.5625 3.89688V3.69687ZM0.4625 8.4375C0.4625 8.74873 0.617386 9.06518 0.88605 9.22637L0.98895 9.05488C0.788864 8.93482 0.6625 8.68877 0.6625 8.4375H0.4625ZM0.889094 9.22813L3.09222 10.4469L3.18903 10.2719L0.985906 9.05312L0.889094 9.22813ZM3.04199 10.3429C2.94742 10.9103 2.9 11.4314 2.9 12H3.1C3.1 11.4436 3.14633 10.9334 3.23926 10.3758L3.04199 10.3429ZM2.9 12C2.9 12.5681 2.94734 13.1361 3.04199 13.7039L3.23926 13.6711C3.14641 13.1139 3.1 12.5569 3.1 12H2.9ZM3.09222 13.6L0.889094 14.8187L0.985906 14.9938L3.18903 13.775L3.09222 13.6ZM0.88605 14.8205C0.619951 14.9802 0.4625 15.2949 0.4625 15.5625H0.6625C0.6625 15.3613 0.786299 15.1136 0.98895 14.992L0.88605 14.8205ZM0.4625 15.5625C0.4625 15.6671 0.497736 15.8191 0.553781 15.996C0.610879 16.1762 0.693067 16.3926 0.794191 16.6307C0.996493 17.1069 1.2766 17.6744 1.58901 18.2196C1.9011 18.7643 2.24744 19.2903 2.58277 19.6815C2.75032 19.877 2.9176 20.0418 3.07891 20.1584C3.23849 20.2739 3.40288 20.35 3.5625 20.35V20.15C3.46431 20.15 3.34159 20.1016 3.19612 19.9964C3.05237 19.8924 2.89666 19.7404 2.73462 19.5514C2.41076 19.1735 2.07155 18.6595 1.76255 18.1202C1.45387 17.5815 1.17733 17.0211 0.97827 16.5525C0.87871 16.3181 0.799033 16.1079 0.744437 15.9356C0.688788 15.76 0.6625 15.6336 0.6625 15.5625H0.4625ZM3.5625 20.35C3.72297 20.35 3.89146 20.2968 4.00821 20.1801L3.86679 20.0387C3.79604 20.1094 3.68328 20.15 3.5625 20.15V20.35ZM3.98731 20.1961L6.19044 18.9305L6.09081 18.757L3.88769 20.0227L3.98731 20.1961ZM6.07661 18.9206C6.92842 19.6304 7.87629 20.1994 8.96715 20.5788L9.03285 20.3899C7.96746 20.0194 7.04033 19.4633 6.20464 18.7669L6.07661 18.9206ZM8.9 20.4844V23.0156H9.1V20.4844H8.9ZM8.9 23.0156C8.9 23.4372 9.16586 23.7563 9.53503 23.8618L9.58997 23.6695C9.30289 23.5875 9.1 23.344 9.1 23.0156H8.9ZM9.54512 23.8641C10.3455 24.0054 11.1486 24.1 11.9531 24.1V23.9C11.1639 23.9 10.3732 23.8071 9.57988 23.6671L9.54512 23.8641ZM11.9531 24.1C12.7065 24.1 13.559 24.053 14.3667 23.863L14.3208 23.6683C13.5348 23.8532 12.6998 23.9 11.9531 23.9V24.1ZM14.368 23.8626C14.7746 23.761 15.1 23.4486 15.1 23.0156H14.9C14.9 23.3327 14.6629 23.5828 14.3195 23.6686L14.368 23.8626ZM15.1 23.0156V20.4844H14.9V23.0156H15.1ZM15.0342 20.5784C16.0775 20.199 17.0249 19.6303 17.8765 18.9206L17.7485 18.7669C16.9126 19.4635 15.985 20.0198 14.9658 20.3904L15.0342 20.5784ZM17.7627 18.9305L19.9658 20.1961L20.0654 20.0227L17.8623 18.757L17.7627 18.9305ZM19.9449 20.1801C20.0617 20.2968 20.2302 20.35 20.3906 20.35V20.15C20.2698 20.15 20.1571 20.1094 20.0863 20.0387L19.9449 20.1801ZM20.3956 20.3499C20.5428 20.3425 20.6972 20.2637 20.8488 20.1496C21.0027 20.0338 21.1654 19.8727 21.3305 19.6819C21.6609 19.3001 22.01 18.7893 22.3281 18.2563C22.6464 17.7229 22.9354 17.164 23.1453 16.6844C23.2502 16.4446 23.3359 16.2234 23.3955 16.0343C23.4544 15.8476 23.4906 15.6839 23.4906 15.5625H23.2906C23.2906 15.652 23.2624 15.7916 23.2048 15.9742C23.148 16.1544 23.0652 16.3686 22.9621 16.6042C22.756 17.0753 22.4708 17.6267 22.1563 18.1538C21.8415 18.6814 21.4992 19.1813 21.1793 19.551C21.0192 19.736 20.8669 19.8857 20.7286 19.9898C20.5879 20.0957 20.4729 20.1458 20.3856 20.1501L20.3956 20.3499ZM12 15.65C9.94585 15.65 8.35 14.0541 8.35 12H8.15C8.15 14.1646 9.8354 15.85 12 15.85V15.65ZM8.35 12C8.35 9.99191 9.94667 8.35 12 8.35V8.15C9.83458 8.15 8.15 9.88309 8.15 12H8.35ZM12 8.35C14.0073 8.35 15.65 9.99273 15.65 12H15.85C15.85 9.88227 14.1177 8.15 12 8.15V8.35ZM15.65 12C15.65 14.0533 14.0081 15.65 12 15.65V15.85C14.1169 15.85 15.85 14.1654 15.85 12H15.65Z" fill="black"/>
</svg>
