<svg width="42" height="42" viewBox="0 0 42 42" fill="none" xmlns="http://www.w3.org/2000/svg">
<rect x="1" y="1" width="40" height="40" rx="20" fill="#15161C" stroke="#3A3B40"/>
<path d="M18.3401 28.3996V28.1179C18.3466 27.1513 18.4463 26.3808 18.6393 25.8064C18.8388 25.232 19.1283 24.768 19.5079 24.4145C19.8875 24.061 20.3443 23.7407 20.8784 23.4535C21.2773 23.2325 21.6344 23.0033 21.9496 22.7658C22.2649 22.5283 22.5158 22.2659 22.7024 21.9787C22.889 21.686 22.9823 21.3601 22.9823 21.0011C22.9823 20.62 22.8761 20.2858 22.6638 19.9986C22.4515 19.7114 22.1652 19.4905 21.8049 19.3358C21.451 19.1811 21.0585 19.1038 20.6274 19.1038C20.2092 19.1038 19.8135 19.1839 19.4404 19.3441C19.0672 19.4987 18.7616 19.7307 18.5235 20.04C18.2855 20.3438 18.1568 20.7222 18.1375 21.1751H14.1998C14.232 20.0704 14.5408 19.1591 15.1263 18.441L26.3602 18.3996C26.9199 19.0845 27.1998 19.9102 27.1998 20.8768C27.1998 21.523 27.0744 22.0975 26.8234 22.6001C26.5789 23.0972 26.2347 23.5391 25.7908 23.9257C25.3468 24.3068 24.8224 24.652 24.2176 24.9613C23.7094 25.2209 23.2911 25.4916 22.963 25.7733C22.6413 26.0549 22.4 26.3808 22.2392 26.7509C22.0848 27.1209 22.0043 27.5766 21.9979 28.1179V28.3996H18.3401Z" fill="white" fill-opacity="0.8"/>
<path d="M18.7748 32.8138C19.1692 33.2043 19.6442 33.3996 20.1998 33.3996C20.5553 33.3996 20.8831 33.3103 21.1831 33.1318C21.4831 32.9477 21.7247 32.705 21.9081 32.4038C22.0969 32.0969 22.1942 31.7594 22.1997 31.3912C22.1942 30.8445 21.9914 30.3759 21.5914 29.9854C21.1914 29.5949 20.7275 29.3996 20.1998 29.3996C19.6442 29.3996 19.1692 29.5949 18.7748 29.9854C18.3859 30.3759 18.1943 30.8445 18.1998 31.3912C18.1943 31.9435 18.3859 32.4177 18.7748 32.8138Z" fill="white" fill-opacity="0.8"/>
<path d="M20.7045 14.9065C17.6769 14.9065 14.7249 15.5794 12 17H29.3333C26.6084 15.5794 23.7322 14.9065 20.7045 14.9065ZM24.6405 9L19.4934 9.82243L16.9956 9L15.3304 14.0093H26.3057L24.6405 9Z" fill="white" fill-opacity="0.8"/>
</svg>
