<svg width="32" height="32" viewBox="0 0 32 32" fill="none" xmlns="http://www.w3.org/2000/svg">
<path d="M13.3401 23.3997V23.118C13.3466 22.1514 13.4463 21.3809 13.6393 20.8065C13.8388 20.232 14.1283 19.7681 14.5079 19.4146C14.8875 19.0611 15.3443 18.7407 15.8784 18.4535C16.2773 18.2326 16.6344 18.0034 16.9496 17.7659C17.2649 17.5284 17.5158 17.266 17.7024 16.9788C17.889 16.686 17.9823 16.3602 17.9823 16.0011C17.9823 15.62 17.8761 15.2859 17.6638 14.9987C17.4515 14.7115 17.1652 14.4905 16.8049 14.3359C16.451 14.1812 16.0585 14.1039 15.6274 14.1039C15.2092 14.1039 14.8135 14.184 14.4404 14.3441C14.0672 14.4988 13.7616 14.7308 13.5235 15.0401C13.2855 15.3439 13.1568 15.7222 13.1375 16.1751H9.19983C9.232 15.0705 9.54083 14.1591 10.1263 13.4411L21.3602 13.3997C21.9199 14.0846 22.1998 14.9103 22.1998 15.8769C22.1998 16.5231 22.0744 17.0975 21.8234 17.6002C21.5789 18.0973 21.2347 18.5391 20.7908 18.9258C20.3468 19.3069 19.8224 19.6521 19.2176 19.9614C18.7094 20.221 18.2911 20.4916 17.963 20.7733C17.6413 21.055 17.4 21.3809 17.2392 21.7509C17.0848 22.121 17.0043 22.5767 16.9979 23.118V23.3997H13.3401Z" fill="black" fill-opacity="0.8"/>
<path d="M13.7748 27.8139C14.1692 28.2044 14.6442 28.3997 15.1998 28.3997C15.5553 28.3997 15.8831 28.3104 16.1831 28.1319C16.4831 27.9478 16.7247 27.7051 16.9081 27.4038C17.0969 27.097 17.1942 26.7595 17.1997 26.3913C17.1942 25.8446 16.9914 25.3759 16.5914 24.9854C16.1914 24.5949 15.7275 24.3997 15.1998 24.3997C14.6442 24.3997 14.1692 24.5949 13.7748 24.9854C13.3859 25.3759 13.1943 25.8446 13.1998 26.3913C13.1943 26.9436 13.3859 27.4178 13.7748 27.8139Z" fill="black" fill-opacity="0.8"/>
<path d="M15.7045 9.90654C12.6769 9.90654 9.72489 10.5794 7 12H24.3333C21.6084 10.5794 18.7322 9.90654 15.7045 9.90654ZM19.6405 4L14.4934 4.82243L11.9956 4L10.3304 9.00935H21.3057L19.6405 4Z" fill="black" fill-opacity="0.8"/>
</svg>
