<svg width="20" height="20" viewBox="0 0 20 20" fill="none" xmlns="http://www.w3.org/2000/svg">
<path d="M9.16663 5.83329H10.8333V7.49996H9.16663V5.83329ZM9.16663 9.16663H10.8333V14.1666H9.16663V9.16663ZM9.99996 1.66663C5.39996 1.66663 1.66663 5.39996 1.66663 9.99996C1.66663 14.6 5.39996 18.3333 9.99996 18.3333C14.6 18.3333 18.3333 14.6 18.3333 9.99996C18.3333 5.39996 14.6 1.66663 9.99996 1.66663ZM9.99996 16.6666C6.32496 16.6666 3.33329 13.675 3.33329 9.99996C3.33329 6.32496 6.32496 3.33329 9.99996 3.33329C13.675 3.33329 16.6666 6.32496 16.6666 9.99996C16.6666 13.675 13.675 16.6666 9.99996 16.6666Z" fill="black"/>
</svg>
