<svg width="20" height="20" viewBox="0 0 20 20" fill="none" xmlns="http://www.w3.org/2000/svg">
<g clip-path="url(#clip0_11132_14359)">
<path d="M9.16663 6.66663C9.16663 6.20639 9.53972 5.83329 9.99996 5.83329C10.4602 5.83329 10.8333 6.20639 10.8333 6.66663C10.8333 7.12686 10.4602 7.49996 9.99996 7.49996C9.53972 7.49996 9.16663 7.12686 9.16663 6.66663ZM9.99996 14.1666C10.4583 14.1666 10.8333 13.7916 10.8333 13.3333V9.99996C10.8333 9.54163 10.4583 9.16663 9.99996 9.16663C9.54163 9.16663 9.16663 9.54163 9.16663 9.99996V13.3333C9.16663 13.7916 9.54163 14.1666 9.99996 14.1666ZM9.99996 1.66663C5.39996 1.66663 1.66663 5.39996 1.66663 9.99996C1.66663 14.6 5.39996 18.3333 9.99996 18.3333C14.6 18.3333 18.3333 14.6 18.3333 9.99996C18.3333 5.39996 14.6 1.66663 9.99996 1.66663Z" fill="white" fill-opacity="0.2"/>
<path d="M9.16666 6.66667C9.16666 6.20643 9.53975 5.83333 9.99999 5.83333C10.4602 5.83333 10.8333 6.20643 10.8333 6.66667C10.8333 7.1269 10.4602 7.5 9.99999 7.5C9.53975 7.5 9.16666 7.1269 9.16666 6.66667ZM9.99999 14.1667C10.4583 14.1667 10.8333 13.7917 10.8333 13.3333V10C10.8333 9.54167 10.4583 9.16667 9.99999 9.16667C9.54166 9.16667 9.16666 9.54167 9.16666 10V13.3333C9.16666 13.7917 9.54166 14.1667 9.99999 14.1667ZM9.99999 1.66667C5.39999 1.66667 1.66666 5.4 1.66666 10C1.66666 14.6 5.39999 18.3333 9.99999 18.3333C14.6 18.3333 18.3333 14.6 18.3333 10C18.3333 5.4 14.6 1.66667 9.99999 1.66667ZM9.99999 16.6667C6.32499 16.6667 3.33332 13.675 3.33332 10C3.33332 6.325 6.32499 3.33333 9.99999 3.33333C13.675 3.33333 16.6667 6.325 16.6667 10C16.6667 13.675 13.675 16.6667 9.99999 16.6667Z" fill="white"/>
</g>
<defs>
<clipPath id="clip0_11132_14359">
<rect width="20" height="20" fill="white"/>
</clipPath>
</defs>
</svg>
