<svg width="20" height="20" viewBox="0 0 20 20" fill="none" xmlns="http://www.w3.org/2000/svg">
<rect y="0.000488281" width="20" height="20" rx="10" fill="black"/>
<path d="M8.73193 12.6322V12.4279C8.73594 11.7268 8.79804 11.1679 8.91823 10.7512C9.04243 10.3346 9.22272 9.99804 9.4591 9.74162C9.69548 9.48521 9.97993 9.25284 10.3125 9.04451C10.5609 8.88425 10.7832 8.71799 10.9795 8.54571C11.1758 8.37344 11.3321 8.18313 11.4483 7.9748C11.5645 7.76246 11.6226 7.52608 11.6226 7.26566C11.6226 6.98922 11.5565 6.74683 11.4242 6.5385C11.292 6.33017 11.1137 6.16991 10.8894 6.05773C10.669 5.94555 10.4246 5.88946 10.1562 5.88946C9.8958 5.88946 9.6494 5.94755 9.41703 6.06374C9.18466 6.17592 8.99435 6.34419 8.84612 6.56855C8.69788 6.7889 8.61775 7.06334 8.60573 7.39187H6.15381C6.17384 6.59058 6.36615 5.92953 6.73073 5.40869C7.09531 4.88385 7.57809 4.49323 8.17905 4.23682C8.78001 3.9764 9.44307 3.84619 10.1682 3.84619C10.9655 3.84619 11.6706 3.9784 12.2836 4.24283C12.8966 4.50324 13.3774 4.88185 13.7259 5.37864C14.0745 5.87544 14.2488 6.4744 14.2488 7.17552C14.2488 7.64427 14.1706 8.06094 14.0144 8.42552C13.8621 8.7861 13.6478 9.10661 13.3714 9.38706C13.0949 9.6635 12.7684 9.9139 12.3918 10.1383C12.0753 10.3266 11.8149 10.5229 11.6105 10.7272C11.4102 10.9315 11.26 11.1679 11.1598 11.4363C11.0637 11.7048 11.0136 12.0353 11.0096 12.4279V12.6322H8.73193ZM9.92184 16.4784C9.5212 16.4784 9.17865 16.3382 8.89419 16.0577C8.61374 15.7733 8.47552 15.4327 8.47953 15.0361C8.47552 14.6435 8.61374 14.3069 8.89419 14.0265C9.17865 13.746 9.5212 13.6058 9.92184 13.6058C10.3024 13.6058 10.637 13.746 10.9254 14.0265C11.2139 14.3069 11.3601 14.6435 11.3641 15.0361C11.3601 15.3005 11.29 15.5429 11.1538 15.7633C11.0216 15.9796 10.8473 16.1539 10.631 16.2861C10.4146 16.4143 10.1782 16.4784 9.92184 16.4784Z" fill="white"/>
</svg>
