<svg width="16" height="17" viewBox="0 0 16 17" fill="none" xmlns="http://www.w3.org/2000/svg">
<path d="M15.7336 13.8438L12.618 10.7188C12.4622 10.5938 12.2753 10.5 12.0884 10.5H11.5899C12.4311 9.40625 12.9607 8.03125 12.9607 6.5C12.9607 2.9375 10.0321 0 6.48036 0C2.89747 0 0 2.9375 0 6.5C0 10.0938 2.89747 13 6.48036 13C7.97583 13 9.34668 12.5 10.4683 11.625V12.1562C10.4683 12.3438 10.5306 12.5312 10.6864 12.6875L13.7708 15.7812C14.0823 16.0938 14.5497 16.0938 14.8301 15.7812L15.7024 14.9062C16.014 14.625 16.014 14.1562 15.7336 13.8438ZM6.48036 10.5C4.26832 10.5 2.49245 8.71875 2.49245 6.5C2.49245 4.3125 4.26832 2.5 6.48036 2.5C8.66125 2.5 10.4683 4.3125 10.4683 6.5C10.4683 8.71875 8.66125 10.5 6.48036 10.5Z" fill="black"/>
</svg>
