<svg width="24" height="24" viewBox="0 0 24 24" fill="none" xmlns="http://www.w3.org/2000/svg">
<g clip-path="url(#clip0_10699_14583)">
<path d="M7.5 12C7.5 9.47344 9.47344 7.5 12 7.5C14.4844 7.5 16.5 9.47344 16.5 12C16.5 14.4844 14.4844 16.5 12 16.5C9.47344 16.5 7.5 14.4844 7.5 12ZM24 12C24 18.6281 18.6281 24 12 24C5.37188 24 0 18.6281 0 12C0 5.37188 5.37188 0 12 0C18.6281 0 24 5.37188 24 12ZM12 2.25C6.61406 2.25 2.25 6.61406 2.25 12C2.25 17.3859 6.61406 21.75 12 21.75C17.3859 21.75 21.75 17.3859 21.75 12C21.75 6.61406 17.3859 2.25 12 2.25Z" fill="#3574F4"/>
</g>
<defs>
<clipPath id="clip0_10699_14583">
<rect width="24" height="24" fill="white"/>
</clipPath>
</defs>
</svg>
