<svg width="18" height="20" viewBox="0 0 18 20" fill="none" xmlns="http://www.w3.org/2000/svg">
<g clip-path="url(#clip0_10699_14314)">
<path d="M2.5 1.25C1.12109 1.25 0 2.37109 0 3.75V16.25C0 17.6289 1.12109 18.75 2.5 18.75H15C16.3789 18.75 17.5 17.6289 17.5 16.25V3.75C17.5 2.37109 16.3789 1.25 15 1.25H2.5ZM13.1641 8.16406L8.16406 13.1641C7.79688 13.5312 7.20313 13.5312 6.83984 13.1641L4.33984 10.6641C3.97266 10.2969 3.97266 9.70312 4.33984 9.33984C4.70703 8.97656 5.30078 8.97266 5.66406 9.33984L7.5 11.1758L11.8359 6.83594C12.2031 6.46875 12.7969 6.46875 13.1602 6.83594C13.5234 7.20312 13.5273 7.79687 13.1602 8.16016L13.1641 8.16406Z" fill="#3574F4"/>
</g>
<defs>
<clipPath id="clip0_10699_14314">
<rect width="17.5" height="20" fill="white"/>
</clipPath>
</defs>
</svg>
