<svg width="18" height="20" viewBox="0 0 18 20" fill="none" xmlns="http://www.w3.org/2000/svg">
<g clip-path="url(#clip0_10699_14171)">
<path d="M0 3.75C0 2.36914 1.11914 1.25 2.5 1.25H15C16.3789 1.25 17.5 2.36914 17.5 3.75V16.25C17.5 17.6289 16.3789 18.75 15 18.75H2.5C1.11914 18.75 0 17.6289 0 16.25V3.75ZM1.875 3.75V16.25C1.875 16.5938 2.15469 16.875 2.5 16.875H15C15.3438 16.875 15.625 16.5938 15.625 16.25V3.75C15.625 3.40469 15.3438 3.125 15 3.125H2.5C2.15469 3.125 1.875 3.40469 1.875 3.75Z" fill="#4D4E52"/>
</g>
<defs>
<clipPath id="clip0_10699_14171">
<rect width="17.5" height="20" fill="white"/>
</clipPath>
</defs>
</svg>
