<svg width="20" height="20" viewBox="0 0 20 20" fill="none" xmlns="http://www.w3.org/2000/svg">
<g clip-path="url(#clip0_11132_14907)">
<g clip-path="url(#clip1_11132_14907)">
<path d="M9.99996 1.66667C5.39996 1.66667 1.66663 5.4 1.66663 10C1.66663 14.6 5.39996 18.3333 9.99996 18.3333C14.6 18.3333 18.3333 14.6 18.3333 10C18.3333 5.4 14.6 1.66667 9.99996 1.66667ZM13.2333 6.90834L8.33329 11.8083L6.76663 10.2417C6.44163 9.91667 5.91663 9.91667 5.59163 10.2417C5.26663 10.5667 5.26663 11.0917 5.59163 11.4167L7.74996 13.575C8.07496 13.9 8.59996 13.9 8.92496 13.575L14.4166 8.08334C14.7416 7.75834 14.7416 7.23334 14.4166 6.90834C14.0916 6.58334 13.5583 6.58334 13.2333 6.90834Z" fill="white" fill-opacity="0.2"/>
<path d="M9.99996 1.66667C5.39996 1.66667 1.66663 5.4 1.66663 10C1.66663 14.6 5.39996 18.3333 9.99996 18.3333C14.6 18.3333 18.3333 14.6 18.3333 10C18.3333 5.4 14.6 1.66667 9.99996 1.66667ZM9.99996 16.6667C6.32496 16.6667 3.33329 13.675 3.33329 10C3.33329 6.325 6.32496 3.33333 9.99996 3.33333C13.675 3.33333 16.6666 6.325 16.6666 10C16.6666 13.675 13.675 16.6667 9.99996 16.6667ZM13.2333 6.90833L8.33329 11.8083L6.76663 10.2417C6.44163 9.91667 5.91663 9.91667 5.59163 10.2417C5.26663 10.5667 5.26663 11.0917 5.59163 11.4167L7.74996 13.575C8.07496 13.9 8.59996 13.9 8.92496 13.575L14.4166 8.08333C14.7416 7.75833 14.7416 7.23333 14.4166 6.90833C14.0916 6.58333 13.5583 6.58333 13.2333 6.90833Z" fill="white"/>
</g>
</g>
<defs>
<clipPath id="clip0_11132_14907">
<rect width="20" height="20" fill="white"/>
</clipPath>
<clipPath id="clip1_11132_14907">
<rect width="20" height="20" fill="white"/>
</clipPath>
</defs>
</svg>
