<svg width="20" height="16" viewBox="0 0 20 16" fill="none" xmlns="http://www.w3.org/2000/svg">
<path d="M19 10.8438C19 10.3516 18.6484 10 18.1562 10L4.76172 10L5.81641 9.01562C6.16797 8.66406 6.16797 8.13672 5.81641 7.78516L5.46484 7.43359C5.11328 7.08203 4.58594 7.08203 4.26953 7.43359L1.35156 10.3164C0.894531 10.7383 0.894531 11.4766 1.35156 11.8984L4.26953 14.7812C4.58594 15.1328 5.11328 15.1328 5.46484 14.7812L5.81641 14.4297C6.16797 14.0781 6.16797 13.5508 5.81641 13.1992L4.76172 12.25L18.1562 12.25C18.6484 12.25 19 11.8633 19 11.4062V10.8438ZM1.84375 5.5L15.2734 5.5L14.2188 6.44922C13.8672 6.80078 13.8672 7.32812 14.2188 7.67969L14.5703 8.03125C14.9219 8.38281 15.4492 8.38281 15.7656 8.03125L18.6836 5.14844C19.1406 4.72656 19.1406 3.98828 18.6836 3.56641L15.7656 0.683594C15.4492 0.332031 14.9219 0.332031 14.5703 0.683594L14.2188 1.03516C13.8672 1.38672 13.8672 1.91406 14.2188 2.26562L15.2734 3.25L1.84375 3.25C1.38672 3.25 1 3.60156 1 4.09375V4.65625C1 5.11328 1.38672 5.5 1.84375 5.5Z" fill="#E1E8FD"/>
</svg>
