<svg width="18" height="6" viewBox="0 0 18 6" fill="none" xmlns="http://www.w3.org/2000/svg">
<path d="M11.5312 3.25C11.5312 1.87891 10.3711 0.71875 9 0.71875C7.59375 0.71875 6.46875 1.87891 6.46875 3.25C6.46875 4.65625 7.59375 5.78125 9 5.78125C10.3711 5.78125 11.5312 4.65625 11.5312 3.25ZM15.1875 0.71875C13.7812 0.71875 12.6562 1.87891 12.6562 3.25C12.6562 4.65625 13.7812 5.78125 15.1875 5.78125C16.5586 5.78125 17.7188 4.65625 17.7188 3.25C17.7188 1.87891 16.5586 0.71875 15.1875 0.71875ZM2.8125 0.71875C1.40625 0.71875 0.28125 1.87891 0.28125 3.25C0.28125 4.65625 1.40625 5.78125 2.8125 5.78125C4.18359 5.78125 5.34375 4.65625 5.34375 3.25C5.34375 1.87891 4.18359 0.71875 2.8125 0.71875Z" fill="#E1E8FD"/>
</svg>
