<svg width="32" height="32" viewBox="0 0 32 32" fill="none" xmlns="http://www.w3.org/2000/svg">
<rect width="32" height="32" rx="16" fill="black"/>
<g clip-path="url(#clip0_9610_6974)">
<path d="M13.2574 20.2015C13.0257 20.0678 12.7481 20.2811 12.8177 20.5393L14.0203 25.0052C14.0633 25.1649 14.2275 25.2597 14.3873 25.2171L18.8562 24.0257C19.1146 23.9568 19.1605 23.6097 18.9289 23.476L16.9591 22.3387L19.9641 17.1339C20.2403 16.6556 20.0764 16.0441 19.5981 15.7679C19.1198 15.4918 18.5082 15.6556 18.2321 16.1339L15.2271 21.3387L13.2574 20.2015ZM17.9798 6.99469C17.9368 6.83499 17.7726 6.74021 17.6128 6.78282L13.1439 7.97426C12.8855 8.04316 12.8396 8.39022 13.0712 8.52395L15.0409 9.66117L12.0359 14.866C11.7598 15.3443 11.9237 15.9559 12.402 16.232C12.8803 16.5082 13.4919 16.3443 13.768 15.866L16.773 10.6612L18.7427 11.7984C18.9743 11.9321 19.252 11.7188 19.1824 11.4606L17.9798 6.99469Z" fill="white"/>
</g>
<defs>
<clipPath id="clip0_9610_6974">
<rect width="24" height="24" fill="white" transform="translate(4 4)"/>
</clipPath>
</defs>
</svg>
