<svg width="41" height="41" viewBox="0 0 41 41" fill="none" xmlns="http://www.w3.org/2000/svg">
<rect x="0.5" y="0.5" width="40" height="40" rx="20" fill="black" stroke="#3D3D3D"/>
<path d="M28.148 13.6667C26.4852 13.6667 24.6727 14.5188 22.7568 16.1971C21.848 16.9923 21.0631 17.8444 20.4744 18.526C20.4744 18.526 20.4744 18.526 20.4795 18.5312V18.526C20.4795 18.526 21.409 19.5382 22.4367 20.6226C22.9892 19.9668 23.7845 19.0734 24.6985 18.2678C26.4026 16.7755 27.5129 16.4605 28.148 16.4605C30.5389 16.4605 32.4806 18.3556 32.4806 20.6846C32.4806 22.998 30.5338 24.8932 28.148 24.9087C28.0396 24.9087 27.9002 24.8932 27.7246 24.8571C28.4217 25.1566 29.1705 25.3735 29.8831 25.3735C34.2622 25.3735 35.1194 22.5178 35.1762 22.3112C35.3053 21.7897 35.3724 21.2423 35.3724 20.6794C35.3724 16.8168 32.1294 13.6667 28.148 13.6667Z" fill="white"/>
<path d="M12.8513 27.7123C14.5141 27.7123 16.3267 26.8603 18.2425 25.182C19.1514 24.3867 19.9363 23.5347 20.525 22.853C20.525 22.853 20.525 22.853 20.5198 22.8479V22.853C20.5198 22.853 19.5903 21.8409 18.5627 20.7565C18.0102 21.4123 17.2149 22.3057 16.3009 23.1112C14.5968 24.6036 13.4865 24.9186 12.8513 24.9186C10.4604 24.9186 8.51878 23.0235 8.51878 20.6945C8.51878 18.381 10.4656 16.4859 12.8513 16.4704C12.9598 16.4704 13.0992 16.4859 13.2748 16.522C12.5777 16.2225 11.8289 16.0056 11.1163 16.0056C6.73721 16.0056 5.87999 18.8613 5.82318 19.0679C5.69408 19.5894 5.62695 20.1368 5.62695 20.6997C5.62695 24.5623 8.86993 27.7123 12.8513 27.7123Z" fill="white"/>
<path d="M29.8735 25.3127C27.6323 25.2559 25.3033 23.4898 24.8282 23.0509C23.5992 21.9148 20.7642 18.8422 20.5422 18.5995C18.4662 16.2757 15.6519 13.6731 12.853 13.6731H12.8478H12.8427C9.44478 13.6886 6.58393 15.9917 5.82483 19.0643C5.88163 18.8629 7.00222 15.9504 11.1127 16.0537C13.3539 16.1105 15.6932 17.9024 16.1734 18.3413C17.4025 19.4774 20.2375 22.55 20.4595 22.7927C22.5354 25.1165 25.3498 27.7191 28.1487 27.7191H28.1538H28.159C31.5569 27.7036 34.4177 25.4005 35.1769 22.3279C35.1149 22.5241 33.9891 25.4108 29.8735 25.3127Z" fill="white"/>
</svg>
