<svg width="41" height="41" viewBox="0 0 41 41" fill="none" xmlns="http://www.w3.org/2000/svg">
<rect x="0.5" y="0.5" width="40" height="40" rx="20" fill="black" stroke="#3D3D3D"/>
<path d="M27.4671 29.3972L26.9957 26.9992C25.9591 28.0838 24.5849 28.8854 23.0378 29.308C20.0947 30.1155 17.0235 29.4527 14.8685 27.7959C14.7635 27.7146 14.6606 27.6312 14.5598 27.5456C14.4591 27.46 14.3623 27.3736 14.2695 27.2864L15.686 26.5726L10.5544 24.921L9.64819 29.6154L10.923 28.9729C11.0087 29.0652 11.0943 29.1574 11.1833 29.2473C11.2722 29.3372 11.3651 29.4268 11.4583 29.5145C14.5839 32.4614 19.4948 33.7489 24.1826 32.463C26.7643 31.7579 29.0039 30.3274 30.5502 28.3959L27.4671 29.3972Z" fill="white"/>
<path d="M9.82832 23.1828L12.5569 24.1732C12.5116 24.0517 12.4678 23.9288 12.4278 23.8046C10.9713 19.2742 13.4945 14.4483 18.0704 12.9516C18.1166 12.9364 18.162 12.9193 18.2088 12.9047C18.3029 12.8757 18.3972 12.8507 18.4915 12.8247C18.6318 12.7868 18.7726 12.7513 18.9129 12.72L18.916 14.3888L23.3144 10.8048L18.9035 7.23505L18.9062 8.7498C18.7659 8.77161 18.6248 8.79872 18.4845 8.82565C18.3442 8.85258 18.2035 8.88083 18.0631 8.91193C17.7119 8.98968 17.3616 9.07861 17.0124 9.1867C10.2556 11.2774 6.50613 18.3473 8.63757 24.9782C8.80899 25.5079 9.01555 26.026 9.25594 26.5292L9.82832 23.1828Z" fill="white"/>
<path d="M31.9343 25.1028C31.9748 24.9735 32.0112 24.8424 32.0481 24.7109C32.7201 22.3213 32.717 19.7588 32.0394 17.3712C30.661 12.4941 26.8043 9.2577 22.5067 8.84232L24.7871 10.9425L22.8651 12.7233C25.5636 13.2508 27.9128 15.3957 28.7938 18.5138C29.1825 19.8834 29.2509 21.3413 28.9924 22.7488C28.9671 22.8866 28.9387 23.0234 28.9072 23.1592C28.8764 23.2937 28.8423 23.4267 28.8059 23.5591L27.546 22.7501L28.3707 28.1364L32.9577 26.2252L31.805 25.4847C31.8492 25.358 31.8934 25.2313 31.9343 25.1028Z" fill="white"/>
</svg>
